<?xml version="1.0" encoding="UTF-8"?>
<svg xmlns="http://www.w3.org/2000/svg" version="1.1" viewBox="1000 1285 1000 320">
  <defs>
    <style>
      .cls-1 {
        fill: #39b1db;
      }
    </style>
  </defs>
  <!-- Generator: Adobe Illustrator 28.7.3, SVG Export Plug-In . SVG Version: 1.2.0 Build 164)  -->
  <g>
    <g id="Layer_1">
      <g>
        <g>
          <g>
            <path class="cls-1" d="M1748.06,1452.05c-.77-1.68-2.4-2.67-4.64-2.89-1.6-.15-3.22-.17-4.83-.17-12.92-.01-25.84-.01-38.76,0-1.61,0-3.24,0-4.84.14-3.29.29-5.35,1.78-6.16,4.44-.27.88-.43,246.45-.34,247,.48,3.13,3.24,5.38,7.17,5.79,1.37.14,2.76.12,4.15.12,12.69,0,25.38,0,38.07,0,1.38,0,2.78,0,4.14-.14,3.96-.42,6.73-2.74,6.97-5.85.13-1.64.16-243.62,0-245.26-.1-1.07-.46-2.15-.93-3.17Z"/>
            <path class="cls-1" d="M1990.97,1455.03c-.33-2.96-1.85-5.33-5.13-5.51-1.61-.09-3.23-.1-4.84-.1-7.15-.01-14.3,0-21.46,0-7.61,0-15.23,0-22.84,0-1.61,0-3.23.02-4.84.14-2.51.18-3.72,1.79-3.21,4.22.24,1.12.68,2.21.89,3.34.16.89.29,1.85.12,2.73-2.2,11.68-6.29,22.59-12.74,32.64-5.18,8.05-11.51,15-19.07,20.78-10.56,8.07-22.25,13.94-35.3,16.84-3.59.8-7.21,1.48-10.83,2.2-.9.18-1.83.23-2.73.43-2.37.53-4.09,2.39-4.3,4.83-.16,1.83-.14,3.69-.15,5.53-.01,12.69,0,25.38,0,38.07,0,1.85-.04,3.69.03,5.54.15,4.34,1.68,5.92,5.81,6.06,1.61.05,3.23.08,4.84-.02,5.75-.37,11.47-1.12,17.1-2.24,33.96-6.75,62.42-23.17,84.95-49.48,12.9-15.06,22.12-32.26,27.81-51.32,3.25-10.87,4.9-22,5.86-33.27.04-.46.08-.93.03-1.38Z"/>
            <path class="cls-1" d="M1832.19,1304.97c0-.92.05-1.85-.06-2.77-.68-5.6-2.65-6.81-7.29-7.7-.89-.17-1.85-.17-2.76-.07-3.88.45-7.79.79-11.63,1.48-8.18,1.46-16.17,3.63-24.06,6.26-20.51,6.84-38.16,18.31-53.75,33.06-8.06,7.62-14.9,16.3-20.98,25.62-10.47,16.06-17.52,33.44-20.98,52.27-.83,4.52-1.47,9.08-2.1,13.63-.19,1.36-.13,2.77-.03,4.15.3,4.16,2.96,6.83,7.07,7.11,1.38.09,2.77.05,4.15.05,6.46,0,12.92,0,19.38,0,6.92,0,13.84,0,20.77,0,1.38,0,2.77.02,4.15-.13,2.29-.24,3.82-1.6,4.53-3.72.43-1.29.51-2.7.77-4.05,1.4-7.49,3.01-14.94,6.13-21.93,2.92-6.54,6.45-12.76,10.58-18.62,3.61-5.13,7.84-9.73,12.65-13.69,11-9.05,23.29-15.71,37.3-18.9,2.69-.61,5.43-1.04,8.14-1.55,5.33-1,8.15-1.52,8.07-9.66-.14-13.61-.04-27.23-.04-40.84Z"/>
            <path class="cls-1" d="M1853.94,1355.47c2.72.51,5.45.94,8.14,1.55,14,3.19,26.3,9.85,37.3,18.9,4.8,3.95,9.04,8.56,12.65,13.69,4.13,5.87,7.65,12.08,10.58,18.62,3.13,7,4.73,14.44,6.13,21.93.25,1.35.34,2.76.77,4.05.71,2.12,2.25,3.48,4.53,3.72,1.37.14,2.76.12,4.15.13,6.92.01,13.84,0,20.76,0,6.46,0,12.92,0,19.38,0,1.38,0,2.77.04,4.15-.05,4.11-.28,6.77-2.95,7.07-7.11.1-1.38.16-2.79-.03-4.15-.63-4.56-1.27-9.11-2.1-13.63-3.47-18.83-10.51-36.22-20.98-52.27-6.08-9.32-12.92-17.99-20.98-25.62-15.59-14.74-33.24-26.22-53.75-33.06-7.89-2.63-15.89-4.8-24.06-6.26-3.84-.69-7.75-1.04-11.63-1.48-.91-.1-1.87-.1-2.76.07-4.64.89-6.61,2.1-7.29,7.7-.11.91-.06,1.84-.06,2.77,0,13.61.1,27.23-.04,40.84-.09,8.13,2.74,8.66,8.07,9.66Z"/>
          </g>
          <g>
            <path class="cls-1" d="M1534.73,1437.51c1.57.58,3.16.59,4.77.59,7.15.01,14.3,0,21.46,0,7.15,0,14.3.02,21.46-.02,1.37,0,2.78-.07,4.11-.38,1.9-.45,3.27-1.67,3.79-3.64.24-.89.42-1.8.54-2.71,1.43-11.1,4.85-21.53,10.24-31.36,6.54-11.94,15.33-21.8,26.49-29.59,3.61-2.52,7.57-4.38,11.42-6.48,7.59-4.13,15.72-6.52,24.19-7.93,2.04-.34,4.09-.7,6.1-1.2,2.48-.62,3.93-2.3,4.34-4.82.15-.91.26-1.83.26-2.75.01-13.84.03-27.69-.02-41.53,0-1.83-.26-3.69-.62-5.49-.54-2.72-2.27-4.41-4.92-5.27-1.81-.59-3.67-.7-5.47-.41-6.81,1.1-13.66,1.82-20.41,3.43-20.74,4.94-39.49,13.85-56.27,27-5.64,4.42-10.77,9.37-15.84,14.42-6.56,6.55-12.16,13.85-17.25,21.56-7.67,11.62-13.35,24.21-17.38,37.53-2.41,7.95-4.24,16.04-4.94,24.33-.27,3.2-.18,6.45-.07,9.67.09,2.59,1.63,4.17,4.03,5.05Z"/>
            <path class="cls-1" d="M1673.88,1541.17c-.03-1.59-.23-3.23-.65-4.76-.58-2.15-2.07-3.54-4.28-4.08-.45-.11-.9-.23-1.35-.27-13.59-1.36-25.85-6.42-37.41-13.42-.98-.6-1.99-1.17-2.93-1.82-13.43-9.31-23.04-21.73-29.67-36.56-3.32-7.42-5.37-15.19-6.59-23.2-.17-1.14-.32-2.28-.63-3.39-.61-2.18-2.11-3.61-4.26-4.12-1.55-.37-3.19-.49-4.79-.51-6.46-.05-12.92-.02-19.38-.02h0c-6.23,0-12.46-.06-18.68.02-2.53.04-5.07.25-7.57.63-3.16.49-4.97,2.5-5.04,5.64-.07,3.45-.13,6.93.24,10.35.87,8.03,2.41,15.94,5.07,23.59.68,1.96,1.29,3.94,1.95,5.91,2.88,8.54,6.46,16.76,11.01,24.56,6.78,11.62,15.01,22.1,24.47,31.62,2.43,2.45,5.07,4.69,7.68,6.96,9.46,8.2,19.79,15.15,31.09,20.49,13.18,6.23,27,10.64,41.46,12.81,4.57.69,9.17.96,13.79.72,3.56-.19,5.42-1.85,5.92-5.51.34-2.5.53-5.05.56-7.57.07-7.61.03-15.23.03-22.84,0-5.08.04-10.15-.04-15.23Z"/>
            <path class="cls-1" d="M1513.46,1397.89c-4.03-13.32-9.71-25.91-17.38-37.53-5.08-7.7-10.69-15.01-17.25-21.56-5.06-5.05-10.19-10-15.84-14.42-16.78-13.14-35.54-22.06-56.27-27-6.75-1.61-13.6-2.33-20.41-3.43-1.8-.29-3.66-.18-5.47.41-2.65.86-4.38,2.56-4.92,5.27-.36,1.8-.61,3.66-.62,5.49-.05,13.84-.04,27.69-.02,41.53,0,.92.11,1.84.26,2.75.41,2.53,1.86,4.2,4.34,4.82,2.01.5,4.06.86,6.1,1.2,8.47,1.42,16.6,3.8,24.19,7.93,3.85,2.09,7.81,3.96,11.42,6.48,11.15,7.79,19.94,17.65,26.49,29.59,5.39,9.83,8.81,20.26,10.24,31.36.12.91.3,1.82.54,2.71.52,1.97,1.89,3.19,3.79,3.64,1.32.32,2.73.38,4.11.38,7.15.03,14.3.02,21.46.02s14.3,0,21.46,0c1.61,0,3.2-.01,4.77-.59,2.41-.89,3.95-2.46,4.03-5.05.11-3.22.2-6.47-.07-9.67-.71-8.29-2.54-16.38-4.94-24.33Z"/>
            <path class="cls-1" d="M1513.49,1449.1c-2.5-.39-5.04-.6-7.57-.63-6.23-.09-12.46-.03-18.68-.03h0c-6.46,0-12.92-.03-19.38.03-1.6.01-3.24.14-4.79.51-2.16.51-3.65,1.94-4.26,4.12-.31,1.1-.46,2.25-.63,3.39-1.22,8.01-3.27,15.79-6.59,23.2-6.63,14.83-16.24,27.25-29.67,36.56-.95.66-1.95,1.23-2.93,1.82-11.56,7.01-23.82,12.06-37.41,13.42-.46.05-.91.16-1.35.27-2.21.53-3.71,1.93-4.28,4.08-.41,1.54-.62,3.17-.65,4.76-.08,5.07-.04,10.15-.04,15.23,0,7.61-.04,15.23.03,22.84.02,2.53.21,5.07.56,7.57.5,3.67,2.37,5.32,5.92,5.51,4.62.25,9.22-.03,13.79-.72,14.47-2.17,28.29-6.58,41.46-12.81,11.3-5.34,21.63-12.3,31.09-20.49,2.61-2.26,5.25-4.51,7.68-6.96,9.46-9.52,17.69-20,24.47-31.62,4.55-7.8,8.13-16.02,11.01-24.56.66-1.97,1.27-3.95,1.95-5.91,2.66-7.66,4.19-15.57,5.07-23.59.37-3.42.32-6.9.24-10.35-.07-3.14-1.87-5.15-5.04-5.64Z"/>
          </g>
          <g>
            <path class="cls-1" d="M1362.47,1447.19c0-2.3-.09-4.58-.48-6.89-.38-2.25-.34-4.6-.31-6.9.13-9.75-1.26-19.36-3.74-28.71-2.89-10.92-6.58-21.62-11.96-31.64-6.14-11.42-13.51-21.94-22.29-31.53-6.56-7.18-13.73-13.6-21.47-19.44-13.21-9.97-27.76-17.26-43.59-22.07-8.41-2.55-16.95-4.38-25.71-5.13-1.14-.1-2.26-.43-3.4-.56-1.14-.13-2.32-.3-3.44-.16-4.24.53-7.5,1.84-7.79,7.91-.06,1.15-.03,2.31-.03,3.46,0,13.15,0,26.31,0,39.46,0,1.61.03,3.23.2,4.83.28,2.51,1.86,4.17,4.36,4.71,4.72,1.02,9.52,1.62,14.22,2.8,12.78,3.19,23.93,9.4,34.16,17.58,8.46,6.77,14.57,15.3,19.81,24.62,5.15,9.16,8.32,18.96,9.87,29.33.49,3.26.59,6.42-.84,9.48-.71,1.53-1.76,2.7-3.35,3.3-1.95.74-3.91,1.3-6.05,1.26-4.38-.08-8.77-.02-13.16-.02-6.46,0-12.93,0-19.39,0-9.92,0-19.85-.01-29.77.01-1.84,0-3.69.06-5.52.28-2.03.24-3.88,2.08-4.23,4.07-.2,1.13-.3,2.29-.3,3.43-.02,14.31-.04,28.62.02,42.92,0,1.59.25,3.24.73,4.74.84,2.6,2.72,4.23,5.46,4.75.9.17,1.83.26,2.74.28,1.61.05,3.23.03,4.85.03,38.55,0,77.09,0,115.64,0,1.85,0,3.7.08,5.54-.06,1.36-.1,2.75-.37,4.05-.79,2.37-.76,3.93-2.37,4.28-4.93.44-3.19.96-6.35.93-9.61-.1-13.62-.04-27.23-.05-40.85Z"/>
            <path class="cls-1" d="M1064.47,1433.33c.54,1.94,1.85,3.22,3.84,3.53,1.58.24,3.21.26,4.82.27,6.92.03,13.83.01,20.75.01,7.38,0,14.76-.03,22.13,0,5.82.03,7.51-.51,8.44-7.32,1.1-8.01,3.17-15.77,6.49-23.2,5.34-11.96,12.65-22.53,22.59-31.05,10.27-8.8,21.98-15.14,35.16-18.53,3.78-.97,7.58-1.82,11.52-2.19,4.66-.44,6.91-2.29,6.69-7.77-.05-1.15,0-2.31,0-3.46,0-12.45,0-24.9,0-37.35,0-1.61.07-3.23-.05-4.84-.09-1.13-.36-2.27-.7-3.35-.7-2.2-2.34-3.54-4.56-3.65-3.44-.17-6.96-.41-10.35.09-9.79,1.45-19.47,3.45-28.9,6.63-19.3,6.51-36.33,16.84-51.38,30.4-9.27,8.35-17.2,17.91-24.11,28.36-11.64,17.6-18.76,36.87-22.06,57.62-.69,4.33-.98,8.7-.72,13.09.05.91.18,1.84.42,2.72Z"/>
            <path class="cls-1" d="M1361.36,1433.89c-.54,1.94-1.85,3.22-3.84,3.53-1.58.24-3.21.26-4.82.27-6.92.03-13.83.01-20.75.01-7.38,0-14.76-.03-22.13,0-5.82.03-7.51-.51-8.44-7.32-1.1-8.01-3.17-15.77-6.49-23.2-5.34-11.96-12.65-22.53-22.59-31.05-10.27-8.8-21.98-15.14-35.16-18.53-3.78-.97-7.58-1.82-11.52-2.19-4.66-.44-6.91-2.29-6.69-7.77.05-1.15,0-2.31,0-3.46,0-12.45,0-24.9,0-37.35,0-1.61-.07-3.23.05-4.84.09-1.13.36-2.27.7-3.35.7-2.2,2.34-3.54,4.56-3.65,3.44-.17,6.96-.41,10.35.09,9.79,1.45,19.47,3.45,28.9,6.63,19.3,6.51,36.33,16.84,51.38,30.4,9.27,8.35,17.2,17.91,24.11,28.36,11.64,17.6,18.76,36.87,22.06,57.62.69,4.33.98,8.7.72,13.09-.05.91-.18,1.84-.42,2.72Z"/>
            <path class="cls-1" d="M1357.27,1533.47c-1.29-.44-2.63-.87-3.98-1-1.83-.18-3.69-.08-5.53-.08-19.83,0-52.87-.56-72.7-.56s-39.66,0-59.49,0c-1.84,0-12.98-.38-15.35-.61-3.94-.37-7.73-1.22-11.52-2.19-13.18-3.39-24.88-9.73-35.16-18.53-9.94-8.52-17.26-19.09-22.59-31.05-3.31-7.43-5.39-15.18-6.49-23.2-.94-6.81-2.62-7.35-8.44-7.32-7.38.04-14.76,0-22.13,0-6.92,0-13.83-.02-20.75.01-1.61,0-3.24.02-4.82.27-1.99.31-3.3,1.58-3.84,3.53-.24.88-.37,1.8-.42,2.72-.26,4.39.04,8.76.72,13.09,3.3,20.75,10.42,40.03,22.06,57.62,6.91,10.44,14.84,20.01,24.11,28.36,15.05,13.56,32.09,23.88,51.38,30.4,9.43,3.18,19.11,5.18,28.9,6.63,3.38.5,22.92.29,24.99.29,39.43,0,92.07.57,131.51.57,1.61,0,3.23.02,4.84-.03.91-.03,1.85-.09,2.73-.32,2.39-.61,4.21-1.88,4.62-4.53.35-2.27.94-4.54.96-6.81.1-12.22.03-24.44.06-36.66,0-2.81-.77-5.46-1.42-8.13-.28-1.14-1.11-2.06-2.25-2.46Z"/>
          </g>
        </g>
        <path class="cls-1" d="M1009.28,1563.74c-.13-2.5.21-5.91,1.48-9.27,2.73-7.18,7.7-12.1,14.74-14.94,2.8-1.13,5.73-1.92,8.85-1.68,1.39.11,2.79.05,4.19.01,6.67-.15,11.99,2.62,16.91,7.01,5.65,5.04,8.11,11.46,8.46,18.54.36,7.32-1.62,14.09-6.8,19.92-5.36,6.03-11.99,8.84-19.68,9.1-6.09.21-12.05-1.01-17.14-4.84-4.97-3.75-8.69-8.34-10.33-14.5-.74-2.77-.62-5.54-.69-9.35Z"/>
      </g>
    </g>
  </g>
</svg>